<svg width="500" height="500" viewBox="0 0 500 500" fill="none" xmlns="http://www.w3.org/2000/svg">
<path d="M289.062 125C289.516 104.273 279.633 92.3437 264.414 87.9375C255.945 85.4844 250 77.9063 250 69.0859V0H19.5312C8.74219 0 0 8.74219 0 19.5312V230.469C0 241.258 8.74219 250 19.5312 250H250V180.305C250 171.891 255.43 164.531 263.375 161.773C280.898 155.703 288.766 138.562 289.062 125.008V125Z" fill="#3521AB"/>
<path d="M250 0V69.7344C250 77.9375 255.078 85.3984 262.828 88.0938C278.102 93.3984 289.062 107.922 289.062 125C289.062 142.078 278.102 156.602 262.828 161.906C255.078 164.602 250 172.063 250 180.266V250H319.734C327.938 250 335.398 255.078 338.094 262.828C343.398 278.102 357.922 289.062 375 289.062C392.078 289.062 406.602 278.102 411.906 262.828C414.602 255.078 422.062 250 430.266 250H500V19.5312C500 8.74219 491.258 0 480.469 0H250Z" fill="#7CB4C4"/>
<path d="M430.266 250C422.062 250 414.602 255.078 411.906 262.828C406.602 278.102 392.078 289.062 375 289.062C357.922 289.062 343.398 278.102 338.094 262.828C335.398 255.078 327.938 250 319.734 250H250V480.469C250 491.258 258.742 500 269.531 500H480.469C491.258 500 500 491.258 500 480.469V250H430.266Z" fill="#BCD979"/>
<path d="M36.6953 346.149C35.9844 346.149 35.3672 345.892 34.8516 345.376C34.3359 344.86 34.0781 344.243 34.0781 343.532V316.634C34.0781 315.923 34.3359 315.306 34.8516 314.79C35.3672 314.274 35.9844 314.017 36.6953 314.017H54.0781C54.7891 314.017 55.4062 314.274 55.9219 314.79C56.4375 315.306 56.6953 315.923 56.6953 316.634V343.532C56.6953 344.243 56.4375 344.86 55.9219 345.376C55.4062 345.892 54.7891 346.149 54.0781 346.149H36.6953Z" fill="#FEFDF5"/>
<path d="M92.6406 369.454C91.9297 369.454 91.3125 369.212 90.7969 368.728C90.2813 368.243 90.0234 367.642 90.0234 366.931V338.282C90.0234 335.821 89.4219 333.993 88.2266 332.798C87.0313 331.603 85.2344 331.001 82.8359 331.001H66.6172C65.9062 331.001 65.2891 330.743 64.7734 330.228C64.2578 329.712 64 329.095 64 328.384V316.634C64 315.923 64.2578 315.306 64.7734 314.79C65.2891 314.274 65.9062 314.017 66.6172 314.017H83.4141C89.4375 314.017 94.5469 314.712 98.7578 316.103C102.969 317.493 106.172 319.907 108.375 323.337C110.578 326.767 111.68 331.556 111.68 337.712V366.845C111.68 367.556 111.422 368.173 110.906 368.688C110.391 369.204 109.773 369.462 109.063 369.462H92.6484L92.6406 369.454Z" fill="#FEFDF5"/>
<path d="M122.844 369.454C122.133 369.454 121.516 369.196 121 368.681C120.484 368.165 120.227 367.548 120.227 366.837V316.634C120.227 315.923 120.484 315.306 121 314.79C121.516 314.274 122.133 314.017 122.844 314.017H140.227C140.938 314.017 141.555 314.274 142.07 314.79C142.586 315.306 142.844 315.923 142.844 316.634V366.837C142.844 367.548 142.586 368.165 142.07 368.681C141.555 369.196 140.938 369.454 140.227 369.454H122.844Z" fill="#FEFDF5"/>
<path d="M189.848 369.456C188.613 369.456 187.691 369.151 187.082 368.534C186.465 367.917 186.066 367.479 185.871 367.222L151.59 317.206C151.395 316.948 151.301 316.589 151.301 316.136C151.301 315.55 151.512 315.05 151.934 314.628C152.355 314.206 152.855 313.995 153.441 313.995H169.66C170.957 313.995 171.895 314.323 172.473 314.964C173.059 315.612 173.473 316.097 173.738 316.417L208.699 366.237C208.895 366.495 208.988 366.706 208.988 366.87V367.308C208.988 367.894 208.777 368.394 208.355 368.815C207.934 369.237 207.434 369.448 206.848 369.448H189.855L189.848 369.456ZM154.105 369.456C153.395 369.456 152.777 369.167 152.262 368.581C151.746 367.995 151.488 367.354 151.488 366.636V356.245C151.488 352.104 151.84 348.636 152.559 345.854C153.27 343.073 154.449 340.597 156.105 338.425C157.754 336.253 160.035 334.073 162.949 331.87L173.051 346.44C172.082 347.347 171.402 348.401 171.012 349.597C170.621 350.792 170.395 351.94 170.332 353.042C170.27 354.144 170.238 355.081 170.238 355.854V366.636C170.238 367.479 169.98 368.159 169.465 368.675C168.949 369.19 168.332 369.448 167.621 369.448H154.121L154.105 369.456ZM195.184 349.745L184.504 335.472C185.668 334.823 186.496 334.019 186.98 333.042C187.465 332.073 187.77 331.081 187.902 330.081C188.027 329.081 188.098 328.253 188.098 327.604V316.823C188.098 315.979 188.355 315.3 188.871 314.784C189.387 314.269 190.004 314.011 190.715 314.011H205.184C205.895 314.011 206.512 314.3 207.027 314.886C207.543 315.472 207.801 316.12 207.801 316.831V327.995C207.801 330.519 207.426 333.065 206.684 335.62C205.941 338.183 204.66 340.651 202.848 343.05C201.035 345.448 198.48 347.683 195.176 349.753L195.184 349.745Z" fill="#FEFDF5"/>
<path d="M93.7617 441.7C92.5273 441.7 91.6055 441.396 90.9961 440.778C90.3789 440.161 89.9805 439.724 89.7852 439.466L55.5039 389.45C55.3086 389.192 55.2148 388.833 55.2148 388.38C55.2148 387.794 55.4258 387.294 55.8477 386.872C56.2695 386.45 56.7695 386.239 57.3555 386.239H73.5742C74.8711 386.239 75.8086 386.567 76.3867 387.208C76.9727 387.856 77.3867 388.341 77.6523 388.661L112.613 438.481C112.809 438.739 112.902 438.95 112.902 439.114V439.552C112.902 440.138 112.691 440.638 112.27 441.06C111.848 441.481 111.348 441.692 110.762 441.692H93.7695L93.7617 441.7ZM58.0273 441.7C57.3164 441.7 56.6992 441.411 56.1836 440.825C55.668 440.239 55.4102 439.599 55.4102 438.88V428.489C55.4102 424.349 55.7617 420.88 56.4805 418.099C57.1914 415.317 58.3711 412.841 60.0273 410.669C61.6758 408.497 63.957 406.317 66.8711 404.114L76.9727 418.685C76.0039 419.591 75.3242 420.646 74.9336 421.841C74.543 423.036 74.3164 424.185 74.2539 425.286C74.1914 426.388 74.1602 427.325 74.1602 428.099V438.88C74.1602 439.724 73.9023 440.403 73.3867 440.919C72.8711 441.435 72.2539 441.692 71.543 441.692H58.043L58.0273 441.7ZM99.1055 421.981L88.4258 407.708C89.5898 407.06 90.418 406.255 90.9023 405.278C91.3867 404.31 91.6914 403.317 91.8242 402.317C91.9492 401.317 92.0195 400.489 92.0195 399.841V389.06C92.0195 388.216 92.2773 387.536 92.793 387.021C93.3086 386.505 93.9258 386.247 94.6367 386.247H109.105C109.816 386.247 110.434 386.536 110.949 387.122C111.465 387.708 111.723 388.356 111.723 389.067V400.231C111.723 402.755 111.348 405.302 110.605 407.856C109.863 410.419 108.582 412.888 106.77 415.286C104.957 417.685 102.402 419.919 99.0977 421.989L99.1055 421.981Z" fill="#FEFDF5"/>
<path d="M122.809 418.39C122.098 418.39 121.48 418.132 120.965 417.616C120.449 417.101 120.191 416.483 120.191 415.772V388.874C120.191 388.163 120.449 387.546 120.965 387.03C121.48 386.515 122.098 386.257 122.809 386.257H140.191C140.902 386.257 141.52 386.515 142.035 387.03C142.551 387.546 142.809 388.163 142.809 388.874V415.772C142.809 416.483 142.551 417.101 142.035 417.616C141.52 418.132 140.902 418.39 140.191 418.39H122.809Z" fill="#FEFDF5"/>
<path d="M166.684 436.942C164.027 438.435 161.621 439.614 159.449 440.489C157.277 441.364 155.059 442.028 152.793 442.481C152.145 442.544 151.598 442.481 151.145 442.286C150.691 442.091 150.465 441.669 150.465 441.021V426.552C150.465 425.45 151.145 424.646 152.504 424.122C152.957 423.927 153.848 423.653 155.176 423.294C156.504 422.942 157.926 422.552 159.449 422.13C160.973 421.708 162.215 421.302 163.191 420.919C164.551 420.403 165.793 419.724 166.934 418.88C168.066 418.036 169.105 417.021 170.043 415.817C170.98 414.622 171.84 413.208 172.613 411.591L178.246 412.56C177.793 417.286 177.129 421.216 176.254 424.356C175.379 427.497 174.168 430.052 172.613 432.028C171.059 434.005 169.082 435.638 166.691 436.935L166.684 436.942ZM174.066 441.7C173.355 441.7 172.738 441.442 172.223 440.927C171.707 440.411 171.449 439.794 171.449 439.083L165.621 410.536C165.293 408.724 164.879 407.302 164.355 406.263C163.84 405.231 163.121 404.466 162.223 403.981C161.316 403.497 160.051 403.255 158.434 403.255H155.129C154.418 403.255 153.801 402.997 153.285 402.481C152.77 401.966 152.512 401.349 152.512 400.638V387.919C152.512 387.208 152.77 386.591 153.285 386.075C153.801 385.56 154.418 385.302 155.129 385.302H158.918C165.262 385.302 170.363 386.099 174.215 387.685C178.066 389.271 181.074 391.88 183.246 395.505C185.418 399.13 187.082 403.95 188.246 409.974L194.074 439.106C194.207 439.817 193.98 440.435 193.395 440.95C192.809 441.466 192.16 441.724 191.449 441.724H174.066V441.7Z" fill="#FEFDF5"/>
<path d="M131.223 305.469C133.811 305.469 135.91 303.371 135.91 300.782C135.91 298.193 133.811 296.094 131.223 296.094C128.634 296.094 126.535 298.193 126.535 300.782C126.535 303.371 128.634 305.469 131.223 305.469Z" fill="#FEFDF5"/>
</svg>
