<svg width="501" height="500" viewBox="0 0 501 500" fill="none" xmlns="http://www.w3.org/2000/svg">
<path d="M289.562 125C290.016 104.273 280.133 92.3438 264.914 87.9375C256.445 85.4844 250.5 77.9062 250.5 69.0859V0H20.0312C9.24219 0 0.5 8.74219 0.5 19.5312V230.469C0.5 241.258 9.24219 250 20.0312 250H250.5V180.305C250.5 171.891 255.93 164.531 263.875 161.773C281.398 155.703 289.266 138.562 289.562 125.008V125Z" fill="#3521AB"/>
<path d="M250.5 0V69.7344C250.5 77.9375 255.578 85.3984 263.328 88.0938C278.602 93.3984 289.562 107.922 289.562 125C289.562 142.078 278.602 156.602 263.328 161.906C255.578 164.602 250.5 172.062 250.5 180.266V250H320.234C328.438 250 335.898 255.078 338.594 262.828C343.898 278.102 358.422 289.062 375.5 289.062C392.578 289.062 407.102 278.102 412.406 262.828C415.102 255.078 422.562 250 430.766 250H500.5V19.5312C500.5 8.74219 491.758 0 480.969 0H250.5Z" fill="#7CB4C4"/>
<path d="M430.766 250C422.562 250 415.102 255.078 412.406 262.828C407.102 278.102 392.578 289.062 375.5 289.062C358.422 289.062 343.898 278.102 338.594 262.828C335.898 255.078 328.438 250 320.234 250H250.5V480.469C250.5 491.258 259.242 500 270.031 500H480.969C491.758 500 500.5 491.258 500.5 480.469V250H430.766Z" fill="#BCD979"/>
<path d="M37.1953 346.149C36.4844 346.149 35.8672 345.892 35.3516 345.376C34.8359 344.86 34.5781 344.243 34.5781 343.532V316.634C34.5781 315.923 34.8359 315.306 35.3516 314.79C35.8672 314.274 36.4844 314.017 37.1953 314.017H54.5781C55.2891 314.017 55.9062 314.274 56.4219 314.79C56.9375 315.306 57.1953 315.923 57.1953 316.634V343.532C57.1953 344.243 56.9375 344.86 56.4219 345.376C55.9062 345.892 55.2891 346.149 54.5781 346.149H37.1953Z" fill="#202020"/>
<path d="M93.1406 369.454C92.4297 369.454 91.8125 369.212 91.2969 368.728C90.7813 368.243 90.5234 367.642 90.5234 366.931V338.282C90.5234 335.821 89.9219 333.993 88.7266 332.798C87.5313 331.603 85.7344 331.001 83.3359 331.001H67.1172C66.4062 331.001 65.7891 330.743 65.2734 330.228C64.7578 329.712 64.5 329.095 64.5 328.384V316.634C64.5 315.923 64.7578 315.306 65.2734 314.79C65.7891 314.274 66.4062 314.017 67.1172 314.017H83.9141C89.9375 314.017 95.0469 314.712 99.2578 316.103C103.469 317.493 106.672 319.907 108.875 323.337C111.078 326.767 112.18 331.556 112.18 337.712V366.845C112.18 367.556 111.922 368.173 111.406 368.688C110.891 369.204 110.273 369.462 109.563 369.462H93.1484L93.1406 369.454Z" fill="#202020"/>
<path d="M123.344 369.454C122.633 369.454 122.016 369.196 121.5 368.681C120.984 368.165 120.727 367.548 120.727 366.837V316.634C120.727 315.923 120.984 315.306 121.5 314.79C122.016 314.274 122.633 314.017 123.344 314.017H140.727C141.438 314.017 142.055 314.274 142.57 314.79C143.086 315.306 143.344 315.923 143.344 316.634V366.837C143.344 367.548 143.086 368.165 142.57 368.681C142.055 369.196 141.438 369.454 140.727 369.454H123.344Z" fill="#202020"/>
<path d="M190.348 369.456C189.113 369.456 188.191 369.151 187.582 368.534C186.965 367.917 186.566 367.479 186.371 367.222L152.09 317.206C151.895 316.948 151.801 316.589 151.801 316.136C151.801 315.55 152.012 315.05 152.434 314.628C152.855 314.206 153.355 313.995 153.941 313.995H170.16C171.457 313.995 172.395 314.323 172.973 314.964C173.559 315.612 173.973 316.097 174.238 316.417L209.199 366.237C209.395 366.495 209.488 366.706 209.488 366.87V367.308C209.488 367.894 209.277 368.394 208.855 368.815C208.434 369.237 207.934 369.448 207.348 369.448H190.355L190.348 369.456ZM154.605 369.456C153.895 369.456 153.277 369.167 152.762 368.581C152.246 367.995 151.988 367.354 151.988 366.636V356.245C151.988 352.104 152.34 348.636 153.059 345.854C153.77 343.073 154.949 340.597 156.605 338.425C158.254 336.253 160.535 334.073 163.449 331.87L173.551 346.44C172.582 347.347 171.902 348.401 171.512 349.597C171.121 350.792 170.895 351.94 170.832 353.042C170.77 354.144 170.738 355.081 170.738 355.854V366.636C170.738 367.479 170.48 368.159 169.965 368.675C169.449 369.19 168.832 369.448 168.121 369.448H154.621L154.605 369.456ZM195.684 349.745L185.004 335.472C186.168 334.823 186.996 334.019 187.48 333.042C187.965 332.073 188.27 331.081 188.402 330.081C188.527 329.081 188.598 328.253 188.598 327.604V316.823C188.598 315.979 188.855 315.3 189.371 314.784C189.887 314.269 190.504 314.011 191.215 314.011H205.684C206.395 314.011 207.012 314.3 207.527 314.886C208.043 315.472 208.301 316.12 208.301 316.831V327.995C208.301 330.519 207.926 333.065 207.184 335.62C206.441 338.183 205.16 340.651 203.348 343.05C201.535 345.448 198.98 347.683 195.676 349.753L195.684 349.745Z" fill="#202020"/>
<path d="M94.2617 441.7C93.0273 441.7 92.1055 441.396 91.4961 440.778C90.8789 440.161 90.4805 439.724 90.2852 439.466L56.0039 389.45C55.8086 389.192 55.7148 388.833 55.7148 388.38C55.7148 387.794 55.9258 387.294 56.3477 386.872C56.7695 386.45 57.2695 386.239 57.8555 386.239H74.0742C75.3711 386.239 76.3086 386.567 76.8867 387.208C77.4727 387.856 77.8867 388.341 78.1523 388.661L113.113 438.481C113.309 438.739 113.402 438.95 113.402 439.114V439.552C113.402 440.138 113.191 440.638 112.77 441.06C112.348 441.481 111.848 441.692 111.262 441.692H94.2695L94.2617 441.7ZM58.5273 441.7C57.8164 441.7 57.1992 441.411 56.6836 440.825C56.168 440.239 55.9102 439.599 55.9102 438.88V428.489C55.9102 424.349 56.2617 420.88 56.9805 418.099C57.6914 415.317 58.8711 412.841 60.5273 410.669C62.1758 408.497 64.457 406.317 67.3711 404.114L77.4727 418.685C76.5039 419.591 75.8242 420.646 75.4336 421.841C75.043 423.036 74.8164 424.185 74.7539 425.286C74.6914 426.388 74.6602 427.325 74.6602 428.099V438.88C74.6602 439.724 74.4023 440.403 73.8867 440.919C73.3711 441.435 72.7539 441.692 72.043 441.692H58.543L58.5273 441.7ZM99.6055 421.981L88.9258 407.708C90.0898 407.06 90.918 406.255 91.4023 405.278C91.8867 404.31 92.1914 403.317 92.3242 402.317C92.4492 401.317 92.5195 400.489 92.5195 399.841V389.06C92.5195 388.216 92.7773 387.536 93.293 387.021C93.8086 386.505 94.4258 386.247 95.1367 386.247H109.605C110.316 386.247 110.934 386.536 111.449 387.122C111.965 387.708 112.223 388.356 112.223 389.067V400.231C112.223 402.755 111.848 405.302 111.105 407.856C110.363 410.419 109.082 412.888 107.27 415.286C105.457 417.685 102.902 419.919 99.5977 421.989L99.6055 421.981Z" fill="#202020"/>
<path d="M123.309 418.39C122.598 418.39 121.98 418.132 121.465 417.616C120.949 417.101 120.691 416.483 120.691 415.772V388.874C120.691 388.163 120.949 387.546 121.465 387.03C121.98 386.515 122.598 386.257 123.309 386.257H140.691C141.402 386.257 142.02 386.515 142.535 387.03C143.051 387.546 143.309 388.163 143.309 388.874V415.772C143.309 416.483 143.051 417.101 142.535 417.616C142.02 418.132 141.402 418.39 140.691 418.39H123.309Z" fill="#202020"/>
<path d="M167.184 436.942C164.527 438.435 162.121 439.614 159.949 440.489C157.777 441.364 155.559 442.028 153.293 442.481C152.645 442.544 152.098 442.481 151.645 442.286C151.191 442.091 150.965 441.669 150.965 441.021V426.552C150.965 425.45 151.645 424.646 153.004 424.122C153.457 423.927 154.348 423.653 155.676 423.294C157.004 422.942 158.426 422.552 159.949 422.13C161.473 421.708 162.715 421.302 163.691 420.919C165.051 420.403 166.293 419.724 167.434 418.88C168.566 418.036 169.605 417.021 170.543 415.817C171.48 414.622 172.34 413.208 173.113 411.591L178.746 412.56C178.293 417.286 177.629 421.216 176.754 424.356C175.879 427.497 174.668 430.052 173.113 432.028C171.559 434.005 169.582 435.638 167.191 436.935L167.184 436.942ZM174.566 441.7C173.855 441.7 173.238 441.442 172.723 440.927C172.207 440.411 171.949 439.794 171.949 439.083L166.121 410.536C165.793 408.724 165.379 407.302 164.855 406.263C164.34 405.231 163.621 404.466 162.723 403.981C161.816 403.497 160.551 403.255 158.934 403.255H155.629C154.918 403.255 154.301 402.997 153.785 402.481C153.27 401.966 153.012 401.349 153.012 400.638V387.919C153.012 387.208 153.27 386.591 153.785 386.075C154.301 385.56 154.918 385.302 155.629 385.302H159.418C165.762 385.302 170.863 386.099 174.715 387.685C178.566 389.271 181.574 391.88 183.746 395.505C185.918 399.13 187.582 403.95 188.746 409.974L194.574 439.106C194.707 439.817 194.48 440.435 193.895 440.95C193.309 441.466 192.66 441.724 191.949 441.724H174.566V441.7Z" fill="#202020"/>
<path d="M131.723 305.469C134.311 305.469 136.41 303.371 136.41 300.782C136.41 298.193 134.311 296.094 131.723 296.094C129.134 296.094 127.035 298.193 127.035 300.782C127.035 303.371 129.134 305.469 131.723 305.469Z" fill="#202020"/>
</svg>
