<svg width="282" height="258" viewBox="0 0 282 258" fill="none" xmlns="http://www.w3.org/2000/svg">
<g filter="url(#filter0_d_406_101)">
<path d="M228.5 146C247.125 127.75 266 105.875 266 77.25C266 59.0164 258.757 41.5295 245.864 28.6364C232.97 15.7433 215.484 8.5 197.25 8.5C175.25 8.5 159.75 14.75 141 33.5C122.25 14.75 106.75 8.5 84.75 8.5C66.5164 8.5 49.0295 15.7433 36.1364 28.6364C23.2433 41.5295 16 59.0164 16 77.25C16 106 34.75 127.875 53.5 146L141 233.5L228.5 146Z" fill="url(#paint0_radial_406_101)"/>
</g>
<defs>
<filter id="filter0_d_406_101" x="0" y="0.5" width="282" height="257" filterUnits="userSpaceOnUse" color-interpolation-filters="sRGB">
<feFlood flood-opacity="0" result="BackgroundImageFix"/>
<feColorMatrix in="SourceAlpha" type="matrix" values="0 0 0 0 0 0 0 0 0 0 0 0 0 0 0 0 0 0 127 0" result="hardAlpha"/>
<feOffset dy="8"/>
<feGaussianBlur stdDeviation="8"/>
<feComposite in2="hardAlpha" operator="out"/>
<feColorMatrix type="matrix" values="0 0 0 0 0.815686 0 0 0 0 0 0 0 0 0 0 0 0 0 0.25 0"/>
<feBlend mode="normal" in2="BackgroundImageFix" result="effect1_dropShadow_406_101"/>
<feBlend mode="normal" in="SourceGraphic" in2="effect1_dropShadow_406_101" result="shape"/>
</filter>
<radialGradient id="paint0_radial_406_101" cx="0" cy="0" r="1" gradientUnits="userSpaceOnUse" gradientTransform="translate(141 9) rotate(90) scale(224.5 249.444)">
<stop stop-color="#D00000"/>
<stop offset="1" stop-color="#F55274"/>
</radialGradient>
</defs>
</svg>
