<svg width="34" height="34" viewBox="0 0 34 34" fill="none" xmlns="http://www.w3.org/2000/svg">
<path d="M29.1693 4.85009C27.641 3.30693 25.821 2.08337 23.8151 1.25069C21.8093 0.418021 19.6577 -0.00710528 17.4859 8.98252e-05C8.38594 8.98252e-05 0.969271 7.41676 0.969271 16.5168C0.969271 19.4334 1.73594 22.2668 3.16927 24.7668L0.835938 33.3334L9.58594 31.0334C12.0026 32.3501 14.7193 33.0501 17.4859 33.0501C26.5859 33.0501 34.0026 25.6334 34.0026 16.5334C34.0026 12.1168 32.2859 7.96676 29.1693 4.85009ZM17.4859 30.2501C15.0193 30.2501 12.6026 29.5834 10.4859 28.3334L9.98594 28.0334L4.78594 29.4001L6.16927 24.3334L5.83594 23.8168C4.46518 21.6285 3.73748 19.0989 3.73594 16.5168C3.73594 8.95009 9.9026 2.78342 17.4693 2.78342C21.1359 2.78342 24.5859 4.21676 27.1693 6.81676C28.4486 8.08986 29.4625 9.60433 30.152 11.2723C30.8415 12.9403 31.1929 14.7286 31.1859 16.5334C31.2193 24.1001 25.0526 30.2501 17.4859 30.2501ZM25.0193 19.9834C24.6026 19.7834 22.5693 18.7834 22.2026 18.6334C21.8193 18.5001 21.5526 18.4334 21.2693 18.8334C20.9859 19.2501 20.2026 20.1834 19.9693 20.4501C19.7359 20.7334 19.4859 20.7668 19.0693 20.5501C18.6526 20.3501 17.3193 19.9001 15.7526 18.5001C14.5193 17.4001 13.7026 16.0501 13.4526 15.6334C13.2193 15.2168 13.4193 15.0001 13.6359 14.7834C13.8193 14.6001 14.0526 14.3001 14.2526 14.0668C14.4526 13.8334 14.5359 13.6501 14.6693 13.3834C14.8026 13.1001 14.7359 12.8668 14.6359 12.6668C14.5359 12.4668 13.7026 10.4334 13.3693 9.60009C13.0359 8.80009 12.6859 8.90009 12.4359 8.88342H11.6359C11.3526 8.88342 10.9193 8.98342 10.5359 9.40009C10.1693 9.81676 9.1026 10.8168 9.1026 12.8501C9.1026 14.8834 10.5859 16.8501 10.7859 17.1168C10.9859 17.4001 13.7026 21.5668 17.8359 23.3501C18.8193 23.7834 19.5859 24.0334 20.1859 24.2168C21.1693 24.5334 22.0693 24.4834 22.7859 24.3834C23.5859 24.2668 25.2359 23.3834 25.5693 22.4168C25.9193 21.4501 25.9193 20.6334 25.8026 20.4501C25.6859 20.2668 25.4359 20.1834 25.0193 19.9834Z" fill="#FEFDF5"/>
</svg>
